HIERARCHY
ROOT Hips
{
  OFFSET 0.0 0.0 0.0
  CHANNELS 6 XPOSITION YPOSITION ZPOSITION ZROTATION XROTATION YROTATION 
  JOINT RightUpLeg
  {
    OFFSET -0.089458038 -0.086670642 0.001016508
    CHANNELS 3 ZROTATION XROTATION YROTATION 
    JOINT RightLeg
    {
      OFFSET 1.524e-006 -0.44256706 0.04075049
      CHANNELS 3 ZROTATION XROTATION YROTATION 
      JOINT RightFoot
      {
        OFFSET 0.001563116 -0.419119812 -0.0416306
        CHANNELS 3 ZROTATION XROTATION YROTATION 
        End Site
        {
          OFFSET 7.5692e-005 -0.04415155 0.084991702
        }
      }
    }
  }
  JOINT Spine
  {
    OFFSET 0.0 0.11890502 0.0
    CHANNELS 3 ZROTATION XROTATION YROTATION 
    JOINT Spine1
    {
      OFFSET 0.0 0.256575052 0.001270508
      CHANNELS 3 ZROTATION XROTATION YROTATION 
      End Site
      {
        OFFSET -0.0029 0.2150836 0.02525291
      }
      JOINT RightArm
      {
        OFFSET -0.16272758 -0.05365633 0.001021842
        CHANNELS 3 ZROTATION XROTATION YROTATION 
        JOINT RightForeArm
        {
          OFFSET -0.263648698 -0.000263906 -0.014099794
          CHANNELS 3 ZROTATION XROTATION YROTATION 
          End Site
          {
            OFFSET -0.220319092 0.001914652 0.010174732
          }
        }
      }
      JOINT LeftArm
      {
        OFFSET 0.16272758 -0.05365633 0.001020826
        CHANNELS 3 ZROTATION XROTATION YROTATION 
        JOINT LeftForeArm
        {
          OFFSET 0.26260552 -0.000263144 -0.01410081
          CHANNELS 3 ZROTATION XROTATION YROTATION 
          End Site
          {
            OFFSET 0.220897958 0.001915922 0.01017524
          }
        }
      }
    }
  }
  JOINT LeftUpLeg
  {
    OFFSET 0.089458038 -0.086670642 0.001016508
    CHANNELS 3 ZROTATION XROTATION YROTATION 
    JOINT LeftLeg
    {
      OFFSET -3.048e-006 -0.442569346 0.040725598
      CHANNELS 3 ZROTATION XROTATION YROTATION 
      JOINT LeftFoot
      {
        OFFSET -0.002532888 -0.41911778 -0.041605708
        CHANNELS 3 ZROTATION XROTATION YROTATION 
        End Site
        {
          OFFSET -0.00040005 -0.044151042 0.084991194
        }
      }
    }
  }
}
MOTION
Frames: 14
Frame Time: 0.033333
1.88811662 0.990176739371 -0.63817246 0.737196404385 0.225532712992 -92.6397886564 -5.55404174813 -3.34316821073 -8.45299089039 3.32421038036 4.89770453823 -5.1423264827 -0.717565640297 -28.4262706085 0.072546960991 1.49522083031 1.19737111493 -0.398186955203 0.357331938559 3.41785654275 -0.525534818421 11.0551256245 -18.7098279104 1.77844679052 2.99156223854 6.22071218047 1.25800846716 -16.3941718006 -17.1063180593 1.97270313349 -2.06829696701 3.93618508471 0.833165471422 2.83170016691 -1.12618549601 5.39754589255 -3.75698098457 2.79860363151 9.29768721523 1.47702712735 -31.1919303167 -0.12332877714 
1.88792612 0.990179279371 -0.63862712 0.752170153397 0.141515663249 -92.5666031795 -5.57183097582 -3.1836011179 -8.36950890326 3.25739960434 4.61421839051 -5.29410737332 -0.573625540037 -28.560475288 0.0622784852753 1.52951809162 1.44206659064 -0.390123570042 0.175654429484 2.87440272304 -0.47169345105 11.14414348 -18.6821195405 1.65686558131 2.95256079116 6.63485216305 1.32084770163 -16.3619537983 -16.7752178091 2.1039383882 -2.13661785517 4.18653328902 0.648129510308 2.77251593742 -1.12286314259 5.36363314954 -3.77492986794 2.75901798952 9.27384473239 1.5042031694 -31.1662283148 -0.125398924768 
1.88729874 0.990255479371 -0.63942214 0.750520769434 0.0700575438015 -92.4871134379 -5.56831385529 -2.81438179538 -8.33812845289 3.24389653379 4.03446424979 -5.3865877078 -0.416447866155 -28.6798789475 0.0509509300318 1.79073515461 1.64656373506 -0.380557143057 -0.296063514197 2.29385521317 -0.358187019546 11.2612504884 -18.3849943587 1.42323682632 2.95761363704 6.94427851547 1.42304131216 -16.3316602018 -16.4098043961 2.29297027678 -2.21107054566 4.50211022679 0.527026200899 2.74118948824 -1.05081371819 5.34400147832 -3.79139019695 2.6777564542 9.22616232802 1.50031369683 -31.1311279727 -0.125118846991 
1.8863691 0.990532339371 -0.64033146 0.760901963281 0.0847848323744 -92.5702026892 -5.49166717997 -2.45080698388 -8.36060233658 3.31614627483 3.41608453555 -5.26067359733 -0.382614364019 -28.6235811133 0.0494425821382 2.06409768133 1.34247496203 -0.349896050347 -0.608770064968 2.50157300522 -0.266453923774 11.2979550712 -17.9444471573 1.40184926287 3.06461175204 6.48009587127 1.534204135 -16.4393569171 -16.2996812561 2.52373590186 -2.25014584446 4.45098199198 0.686069236796 2.79985270236 -0.939464239083 5.36682370166 -3.76851674719 2.57322425093 9.29315367717 1.44201216257 -31.072934761 -0.120488845848 
1.88555122 0.990842219371 -0.64134746 0.837220095829 0.128829840846 -92.8636071253 -5.36104023898 -2.31662322188 -8.29702864333 3.36200608591 2.99696598539 -5.02328781141 -0.407467074531 -28.4585791109 0.0523225640853 2.09010576103 0.759191427781 -0.27212388792 -0.533772453447 3.14197879887 -0.210316158759 11.276618414 -17.7371082273 1.65239671661 3.14121509835 6.06213183652 1.60729036077 -16.6306944214 -16.2769401412 2.87011741967 -2.28197324533 4.12408700387 0.989562609428 2.89258148496 -0.864239470412 5.40591671626 -3.71671189677 2.43325126328 9.56310324374 1.40392297234 -30.9708370933 -0.117327468778 
1.8851118 0.990992079371 -0.64245744 0.956599476163 0.128603844294 -93.2064279802 -5.24002977745 -2.41222217804 -8.16578485088 3.32069240605 2.85937075734 -4.81961455857 -0.394301084493 -28.3660795665 0.0526178230245 1.90501937391 0.412898195499 -0.169204396371 -0.303570078858 3.45478716215 -0.156484383001 11.2857418392 -17.9114795417 1.88538343382 3.05345314393 6.67834808835 1.62170675567 -16.722732928 -16.2028855227 3.2909492801 -2.3006768646 3.92149377469 1.1634243277 2.96262614212 -0.853826420135 5.44780669333 -3.69246728654 2.28576656164 9.87443521894 1.40571376256 -30.8658365952 -0.117315262483 
1.88488066 0.991020019371 -0.64351662 1.03887924328 0.0978006516322 -93.3725859921 -5.17483775626 -2.51727987899 -8.08205100053 3.27826818013 2.86884721793 -4.74576143062 -0.364982817646 -28.3991803707 0.0521795269841 1.69394454388 0.392099282301 -0.10880254559 -0.1744767021 3.40619271408 -0.118208829985 11.3631287363 -18.2768775868 1.94291795918 2.90071666715 7.63726652046 1.56982890761 -16.6468051301 -16.2119952875 3.64344232311 -2.26250165667 3.95895650852 1.11225447143 3.0112880383 -0.855260332974 5.48931332603 -3.70783948104 2.17190197209 9.98904920831 1.36156843569 -30.7959398543 -0.113737430637 
1.88453014 0.991045419371 -0.64437006 1.02075458926 0.0953443782025 -93.3097277612 -5.15181959187 -2.46438390585 -8.10224360104 3.31728158034 2.89110787165 -4.78450397114 -0.386436735314 -28.4777787726 0.0552899711197 1.52469875283 0.429598835113 -0.133203749916 -0.089562429637 3.44438713192 -0.157083758781 11.4605571159 -18.6382406977 2.01532458113 2.8641407907 7.60535075401 1.37005441212 -16.5198694794 -16.353675609 3.84815888735 -2.19185701009 4.05061081699 0.978945613972 3.05590966415 -0.810435242194 5.51235326164 -3.70223232262 2.14721275924 9.89421715432 1.26637587578 -30.7716448714 -0.106376407702 
1.88395864 0.991040339371 -0.64502792 0.914754855822 0.135936946162 -93.1644837885 -5.12172791282 -2.28882584606 -8.15815296826 3.39956721715 2.91760751152 -4.85610996685 -0.463358112303 -28.5483756079 0.0618159600725 1.39124112532 0.489197571707 -0.180506585199 0.0440644751775 3.52747126053 -0.231839245432 11.4979378875 -18.8954126879 2.12523235671 2.92121790683 6.80417041814 1.04888824518 -16.4634213811 -16.4397479454 3.87719359462 -2.17090668547 4.17146589171 0.918333021173 3.10420123602 -0.708395844532 5.52342329074 -3.65214825298 2.21815857448 9.74497325209 1.24679244277 -30.7986480243 -0.10489284259 
1.8833338 0.990981919371 -0.64563752 0.797792882206 0.178132921039 -93.0824600467 -5.07309952725 -2.14052173517 -8.17954682829 3.44547740087 3.00344506015 -4.89073433019 -0.563080154846 -28.6512707002 0.0692834712592 1.34001886869 0.688397317447 -0.159711527322 0.0863033221652 3.35337592845 -0.217171854416 11.4589759271 -18.9363460116 1.9645969796 2.93685626527 6.44195993693 0.872006249272 -16.4696163626 -16.4546343427 3.70105155367 -2.18063436895 4.43163505427 0.916640735085 3.15934007253 -0.582744322827 5.56128857884 -3.62591861902 2.29868180903 9.61541053995 1.3058165897 -30.8665435197 -0.109510590747 
1.88280294 0.990893019371 -0.6462649 0.740437008981 0.16601543174 -93.0619080075 -5.05531969107 -2.11922862043 -8.18163430485 3.43352243539 3.18184768028 -4.88004124215 -0.629788478035 -28.8495715824 0.0731827488831 1.36788561362 0.871798568832 -0.104212064829 -0.0716576423466 3.13249273333 -0.123384352468 11.4441134355 -18.7834044157 1.55617439896 2.89953760575 6.69835371243 0.967504833669 -16.4834167598 -16.6100962784 3.4246404147 -2.11913940109 4.69867752157 0.856177606035 3.19404106205 -0.494221976254 5.60950928749 -3.6581054586 2.32721407052 9.50901582947 1.2660003221 -30.9449472612 -0.105402872292 
1.88232796 0.990740619371 -0.64683132 0.731591433758 0.0972644150813 -93.0523525729 -5.09365839665 -2.20412381639 -8.18779940435 3.38325352376 3.4621330306 -4.86099312522 -0.560501331547 -29.1702762846 0.0619577932195 1.36388952607 0.960598658644 -0.0948133243244 -0.250535741026 3.04679755147 -0.0727027680113 11.5135901197 -18.6531868591 1.29153349021 2.87147662731 6.90165258552 1.13764463245 -16.5508768307 -16.8555801073 3.27743745837 -1.98692038569 4.80118201243 0.660919199611 3.17561982841 -0.478897326273 5.60759640764 -3.68010976678 2.38846912799 9.47991153965 1.09319888397 -31.0548620804 -0.0868475361636 
1.881759 0.990405339371 -0.6472809 0.700283820954 0.0473023150144 -93.1093436713 -5.11520849726 -2.31590626546 -8.14850105719 3.30370850035 3.85200769895 -4.84867957481 -0.301134796254 -29.6110864484 0.0288705092604 1.30249765137 1.25199896791 -0.0731174552095 -0.222310571251 2.74029878888 -0.0541619360298 11.5694158171 -18.6187814888 1.14445166301 2.83883195162 6.81915243809 1.37563328929 -16.9012706578 -17.0220437702 3.32413183319 -1.80712824895 5.03764785725 0.261108607057 3.16176436279 -0.493928064676 5.60400885078 -3.66656294034 2.59994395096 9.53300430761 0.96158690164 -31.2802719834 -0.0703222002916 
1.88098176 0.989894799371 -0.64773048 0.611004870848 0.0694288995936 -93.3080748554 -5.04308041896 -2.42620336183 -8.03024572322 3.1805915658 4.36636747411 -4.8038752414 0.0470323724648 -30.1545885063 -0.0116807132094 1.31729739064 1.80419895157 0.0604299586094 -0.0603803130059 2.21109914708 0.0487362845492 11.6644493617 -18.4875650171 0.678715951185 2.74892809257 6.35448228913 2.12023223135 -17.8483890843 -17.4794888597 3.4500815887 -1.35917840309 6.08323669417 -0.628639992398 3.24813402584 -0.46128888515 5.72358625324 -3.70528755161 2.92636722914 9.55918186138 0.917247447982 -31.6250770082 -0.0603642447191 
